<svg aria-hidden="true" style="position: absolute; width: 0; height: 0; overflow: hidden;" version="1.1" xmlns="http://www.w3.org/2000/svg" xmlns:xlink="http://www.w3.org/1999/xlink">
    <defs>
        <symbol id="icon-email" viewBox="0 0 32 32">
        <path d="M22.586 4c1.788 0 3.508 0.707 4.773 1.975 1.267 1.265 1.975 2.972 1.975 4.759v10.533c0 3.72-3.027 6.733-6.748 6.733h-13.172c-3.721 0-6.747-3.013-6.747-6.733v-10.533c0-3.72 3.012-6.733 6.747-6.733h13.172zM24.707 12.72l0.107-0.107c0.319-0.387 0.319-0.947-0.015-1.333-0.185-0.199-0.44-0.32-0.705-0.347-0.28-0.015-0.547 0.080-0.748 0.267l-6.012 4.8c-0.773 0.641-1.881 0.641-2.667 0l-6-4.8c-0.415-0.307-0.988-0.267-1.333 0.093-0.36 0.36-0.4 0.933-0.095 1.333l0.175 0.173 6.067 4.733c0.747 0.587 1.652 0.907 2.6 0.907 0.945 0 1.867-0.32 2.612-0.907l6.015-4.813z"></path>
        </symbol>
        <symbol id="icon-ticket" viewBox="0 0 32 32">
        <path d="M29.050 14.052c-0.181 0.175-0.425 0.276-0.683 0.276-0.954 0-1.728 0.752-1.728 1.666 0 0.921 0.765 1.669 1.71 1.679 0.533 0.005 0.985 0.366 0.985 0.883v3.213c0 2.705-2.257 4.898-5.042 4.898h-4.204c-0.435 0-0.787-0.342-0.787-0.764v-2.706c0-0.526-0.425-0.939-0.967-0.939-0.529 0-0.967 0.413-0.967 0.939v2.706c0 0.422-0.352 0.764-0.785 0.764h-8.873c-2.772 0-5.042-2.192-5.042-4.898v-3.213c0-0.517 0.453-0.878 0.985-0.883 0.946-0.010 1.71-0.758 1.71-1.679 0-0.889-0.748-1.566-1.728-1.566-0.258 0-0.503-0.1-0.683-0.276s-0.284-0.413-0.284-0.664v-3.245c0-2.701 2.275-4.911 5.055-4.911h8.86c0.433 0 0.785 0.342 0.785 0.764v3.207c0 0.514 0.439 0.94 0.967 0.94 0.542 0 0.967-0.426 0.967-0.94v-3.207c0-0.422 0.352-0.764 0.787-0.764h4.204c2.785 0 5.042 2.192 5.042 4.898v3.157c0 0.251-0.103 0.489-0.284 0.664zM18.334 19.827c0.542 0 0.967-0.426 0.967-0.939v-5.011c0-0.514-0.425-0.939-0.967-0.939-0.529 0-0.967 0.426-0.967 0.939v5.011c0 0.514 0.439 0.939 0.967 0.939z"></path>
        </symbol>
        <symbol id="icon-calendar" viewBox="0 0 32 32">
        <path d="M21.881 3.692l0.001 0.999c3.673 0.288 6.099 2.791 6.103 6.629l0.015 11.234c0.005 4.185-2.624 6.759-6.838 6.766l-10.293 0.013c-4.188 0.005-6.849-2.631-6.855-6.827l-0.014-11.102c-0.005-3.863 2.335-6.359 6.008-6.697l-0.001-1c-0.001-0.586 0.433-1.027 1.012-1.027 0.579-0.001 1.014 0.438 1.015 1.025l0.001 0.933 7.82-0.011-0.001-0.933c-0.001-0.586 0.433-1.026 1.012-1.027 0.566-0.001 1.014 0.438 1.015 1.025zM6.029 11.815l19.931-0.027v-0.466c-0.057-2.865-1.494-4.368-4.074-4.592l0.001 1.026c0 0.573-0.446 1.027-1.012 1.027-0.579 0.001-1.015-0.452-1.015-1.025l-0.001-1.079-7.82 0.011 0.001 1.078c0 0.574-0.433 1.027-1.012 1.027-0.579 0.001-1.015-0.45-1.015-1.025l-0.001-1.026c-2.567 0.257-3.987 1.766-3.984 4.656l0.001 0.414zM20.32 17.872v0.015c0.013 0.613 0.513 1.078 1.12 1.065 0.592-0.015 1.065-0.522 1.052-1.135-0.028-0.586-0.503-1.065-1.094-1.063-0.605 0.013-1.079 0.506-1.078 1.119zM21.407 23.856c-0.605-0.013-1.094-0.518-1.095-1.131-0.013-0.613 0.473-1.121 1.078-1.135h0.013c0.619 0 1.12 0.505 1.12 1.131 0.001 0.626-0.499 1.134-1.116 1.135zM14.896 17.894c0.026 0.613 0.528 1.091 1.133 1.065 0.592-0.028 1.065-0.534 1.039-1.147-0.015-0.6-0.502-1.066-1.094-1.065-0.605 0.027-1.079 0.534-1.078 1.147zM16.035 23.796c-0.606 0.027-1.106-0.452-1.133-1.065 0-0.613 0.473-1.119 1.078-1.147 0.592-0.001 1.081 0.465 1.094 1.063 0.028 0.614-0.446 1.121-1.039 1.149zM9.472 17.94c0.026 0.613 0.528 1.093 1.133 1.065 0.592-0.027 1.065-0.534 1.037-1.147-0.013-0.6-0.5-1.066-1.094-1.065-0.606 0.027-1.078 0.534-1.077 1.147zM10.611 23.803c-0.606 0.028-1.106-0.452-1.133-1.065-0.001-0.613 0.473-1.121 1.078-1.147 0.592-0.001 1.081 0.465 1.094 1.065 0.028 0.613-0.445 1.121-1.039 1.147z"></path>
        </symbol>
        <symbol id="icon-location" viewBox="0 0 32 32">
        <path d="M4.667 13.757c0-6.133 5.125-11.090 11.325-11.090 6.217 0 11.342 4.957 11.342 11.090 0 3.091-1.124 5.96-2.974 8.392-2.041 2.683-4.556 5.020-7.388 6.854-0.648 0.424-1.233 0.456-1.944 0-2.848-1.835-5.363-4.172-7.387-6.854-1.851-2.432-2.974-5.301-2.974-8.392zM12.259 14.102c0 2.055 1.677 3.671 3.732 3.671 2.057 0 3.75-1.616 3.75-3.671 0-2.039-1.693-3.733-3.75-3.733-2.056 0-3.732 1.695-3.732 3.733z"></path>
        </symbol>
        <symbol id="icon-map" viewBox="0 0 32 32">
        <path d="M12.198 9.984c-0.747 0-1.333 0.6-1.333 1.333s0.6 1.333 1.333 1.333c0.733 0 1.333-0.6 1.333-1.333s-0.6-1.333-1.333-1.333z"></path>
        <path d="M28.613 6.72c-1.12-2.6-3.587-4.053-7.027-4.053h-11.173c-4.28 0-7.747 3.467-7.747 7.747v11.173c0 3.44 1.453 5.907 4.053 7.027 0.253 0.107 0.547 0.040 0.733-0.147l21.013-21.013c0.2-0.2 0.267-0.493 0.147-0.733zM14.040 16.32c-0.52 0.507-1.2 0.747-1.88 0.747s-1.36-0.253-1.88-0.747c-1.36-1.28-2.853-3.32-2.28-5.747 0.507-2.2 2.453-3.187 4.16-3.187s3.653 0.987 4.16 3.2c0.56 2.413-0.933 4.453-2.28 5.733z"></path>
        <path d="M25.959 27.373c0.293 0.293 0.253 0.773-0.107 0.973-1.173 0.653-2.6 0.987-4.267 0.987h-11.173c-0.387 0-0.547-0.453-0.28-0.72l8.053-8.053c0.267-0.267 0.68-0.267 0.947 0l6.827 6.813z"></path>
        <path d="M29.336 10.412v11.173c0 1.667-0.333 3.107-0.987 4.267-0.2 0.36-0.68 0.387-0.973 0.107l-6.827-6.827c-0.267-0.267-0.267-0.68 0-0.947l8.053-8.053c0.28-0.267 0.733-0.107 0.733 0.28z"></path>
        </symbol>
        <symbol id="icon-ticket-star" viewBox="0 0 32 32">
        <path d="M26.348 16.001c0 1.085 0.891 1.967 1.985 1.967 0.552 0 1 0.444 1 0.991v3.568c0 3.018-2.477 5.472-5.523 5.472h-15.62c-3.045 0-5.524-2.455-5.524-5.472v-3.568c0-0.547 0.448-0.991 1-0.991 1.096 0 1.987-0.883 1.987-1.967 0-1.057-0.855-1.852-1.987-1.852-0.265 0-0.519-0.104-0.707-0.291s-0.293-0.439-0.293-0.7l0.003-3.685c0-3.018 2.477-5.474 5.523-5.474h15.616c3.045 0 5.524 2.456 5.524 5.474l0.001 3.57c0 0.262-0.105 0.515-0.292 0.7-0.188 0.186-0.441 0.291-0.708 0.291-1.095 0-1.985 0.883-1.985 1.967zM19.003 16.864l1.572-1.517c0.273-0.262 0.368-0.647 0.249-1.004-0.117-0.357-0.424-0.61-0.795-0.662l-2.172-0.314-0.972-1.95c-0.167-0.336-0.505-0.544-0.883-0.546h-0.003c-0.376 0-0.715 0.209-0.884 0.544l-0.972 1.951-2.168 0.313c-0.375 0.053-0.681 0.307-0.8 0.663-0.117 0.357-0.023 0.742 0.249 1.004l1.572 1.517-0.371 2.144c-0.064 0.37 0.087 0.737 0.393 0.958 0.173 0.123 0.375 0.186 0.579 0.186 0.156 0 0.313-0.038 0.457-0.114l1.944-1.012 1.94 1.009c0.336 0.178 0.735 0.151 1.040-0.071 0.308-0.219 0.459-0.587 0.395-0.957l-0.372-2.144z"></path>
        </symbol>
        <symbol id="icon-procent" viewBox="0 0 32 32">
        <path d="M29.175 11.523l1.13 1.129c0.895 0.879 1.381 2.071 1.381 3.326 0.016 1.255-0.471 2.449-1.35 3.341-0.010 0.011-0.021 0.022-0.032 0.032-0.005 0.005-0.010 0.010-0.016 0.015l-1.114 1.114c-0.439 0.439-0.691 1.035-0.691 1.664v1.614c0 2.604-2.118 4.723-4.723 4.723h-1.616c-0.628 0-1.224 0.249-1.663 0.689l-1.13 1.129c-0.926 0.927-2.134 1.38-3.342 1.38s-2.416-0.453-3.342-1.363l-1.146-1.147c-0.439-0.439-1.036-0.689-1.663-0.689h-1.616c-2.605 0-4.723-2.119-4.723-4.723v-1.614c0-0.629-0.251-1.225-0.69-1.68l-1.13-1.114c-1.836-1.834-1.852-4.831-0.016-6.681l1.146-1.147c0.439-0.439 0.69-1.035 0.69-1.678v-1.6c0-2.604 2.118-4.72 4.723-4.72h1.616c0.628 0 1.224-0.253 1.663-0.692l1.13-1.129c1.836-1.849 4.833-1.849 6.685-0.014l1.145 1.144c0.439 0.439 1.036 0.692 1.663 0.692h1.616c2.605 0 4.723 2.116 4.723 4.72v1.617c0 0.626 0.251 1.222 0.691 1.661zM11.961 21.405c0.377 0 0.722-0.141 0.973-0.408l8.066-8.061c0.533-0.533 0.533-1.413 0-1.947-0.533-0.532-1.397-0.532-1.93 0l-8.066 8.063c-0.534 0.533-0.534 1.412 0 1.945 0.251 0.267 0.596 0.408 0.957 0.408zM18.662 20.025c0 0.769 0.612 1.38 1.381 1.38 0.753 0 1.365-0.612 1.365-1.38 0-0.751-0.612-1.365-1.365-1.365-0.769 0-1.381 0.613-1.381 1.365zM11.977 10.598c0.753 0 1.365 0.612 1.365 1.365 0 0.77-0.612 1.38-1.365 1.38s-1.381-0.61-1.381-1.38c0-0.753 0.628-1.365 1.381-1.365z"></path>
        </symbol>
        <symbol id="icon-play-circle" viewBox="0 0 31 32">
        <path d="M15.32 3.2c-7.066 0-12.8 5.734-12.8 12.8s5.734 12.8 12.8 12.8c7.066 0 12.8-5.734 12.8-12.8s-5.722-12.8-12.8-12.8zM19.16 18.854l-3.712 2.138c-0.461 0.269-0.973 0.397-1.472 0.397-0.512 0-1.011-0.128-1.472-0.397-0.922-0.538-1.472-1.485-1.472-2.56v-4.288c0-1.062 0.55-2.022 1.472-2.56s2.022-0.538 2.957 0l3.712 2.138c0.922 0.538 1.472 1.485 1.472 2.56s-0.55 2.035-1.485 2.573z"></path>
        </symbol>
        <symbol id="icon-add-user" viewBox="0 0 32 32">
        <path d="M12.667 16.738c3.673 0 6.617-2.982 6.617-6.703s-2.944-6.702-6.617-6.702c-3.673 0-6.617 2.982-6.617 6.702s2.944 6.703 6.617 6.703zM12.667 20.020c-5.394 0-10 0.863-10 4.308 0 3.445 4.578 4.338 10 4.338 5.393 0 10-0.863 10-4.308s-4.578-4.338-10-4.338zM26.531 12.784h1.604c0.66 0 1.199 0.546 1.199 1.216s-0.538 1.216-1.199 1.216h-1.604v1.57c0 0.67-0.537 1.215-1.198 1.215-0.66 0-1.199-0.546-1.199-1.215v-1.57h-1.601c-0.662 0-1.199-0.546-1.199-1.216s0.537-1.216 1.199-1.216h1.601v-1.568c0-0.67 0.538-1.216 1.199-1.216 0.662 0 1.198 0.546 1.198 1.216v1.568z"></path>
        </symbol>
        <symbol id="icon-send" viewBox="0 0 32 32">
        <path d="M28.581 3.443c-0.667-0.684-1.654-0.94-2.574-0.671l-21.462 6.241c-0.971 0.27-1.659 1.044-1.845 2.028-0.189 1.001 0.472 2.272 1.337 2.804l6.711 4.125c0.688 0.423 1.577 0.317 2.146-0.258l7.684-7.732c0.387-0.403 1.027-0.403 1.414 0 0.387 0.389 0.387 1.020 0 1.423l-7.698 7.734c-0.571 0.573-0.678 1.466-0.258 2.158l4.1 6.778c0.48 0.805 1.307 1.262 2.214 1.262 0.107 0 0.227 0 0.334-0.013 1.040-0.134 1.867-0.846 2.174-1.852l6.363-21.435c0.28-0.913 0.027-1.906-0.64-2.59z"></path>
        </symbol>
        <symbol id="icon-work" viewBox="0 0 31 32">
        <path d="M13.702 5.144c-0.858 0-1.588 0.596-1.793 1.4h6.89c-0.205-0.804-0.935-1.4-1.793-1.4h-3.304zM20.745 6.544h2.536c2.689 0 4.879 2.216 4.879 4.939 0 0-0.077 1.152-0.102 2.757-0.003 0.127-0.064 0.251-0.165 0.327-0.616 0.455-1.18 0.831-1.231 0.857-2.126 1.426-4.596 2.429-7.228 2.928-0.172 0.034-0.341-0.056-0.428-0.209-0.738-1.278-2.116-2.11-3.652-2.11-1.527 0-2.917 0.823-3.677 2.102-0.088 0.15-0.255 0.237-0.425 0.205-2.61-0.5-5.080-1.502-7.193-2.904l-1.229-0.855c-0.102-0.065-0.167-0.181-0.167-0.311-0.038-0.661-0.102-2.787-0.102-2.787 0-2.722 2.19-4.939 4.879-4.939h2.523c0.243-1.879 1.819-3.344 3.74-3.344h3.304c1.921 0 3.496 1.465 3.74 3.344zM27.725 17.043l-0.051 0.026c-2.587 1.737-5.699 2.89-8.964 3.37-0.461 0.065-0.922-0.233-1.050-0.7-0.282-1.063-1.191-1.763-2.28-1.763h-0.038c-1.088 0-1.998 0.7-2.28 1.763-0.128 0.467-0.589 0.765-1.050 0.7-3.266-0.48-6.378-1.633-8.964-3.37-0.013-0.013-0.141-0.091-0.243-0.026-0.115 0.065-0.115 0.22-0.115 0.22l0.090 6.611c0 2.722 2.177 4.926 4.866 4.926h15.419c2.689 0 4.866-2.204 4.866-4.926l0.103-6.611c0 0 0-0.156-0.115-0.22-0.064-0.039-0.141-0.026-0.192 0zM16.314 22.475c0 0.544-0.423 0.972-0.96 0.972-0.525 0-0.96-0.428-0.96-0.972v-1.672c0-0.531 0.435-0.972 0.96-0.972 0.538 0 0.96 0.441 0.96 0.972v1.672z"></path>
        </symbol>
        <symbol id="icon-logo" viewBox="0 0 31 32">
        <path d="M6.675 3.198c-1.117 0.781-2.126 1.704-3.003 2.743 3.582-0.333 8.133 0.21 13.416 2.852 5.642 2.821 10.185 2.916 13.347 2.306-0.287-0.869-0.648-1.703-1.076-2.497-3.619 0.382-8.259-0.124-13.667-2.827-3.434-1.717-6.461-2.424-9.017-2.577zM27.245 5.593c-2.858-3.193-7.012-5.203-11.635-5.203-1.358 0-2.675 0.173-3.931 0.499 1.701 0.464 3.508 1.143 5.409 2.094 3.959 1.98 7.377 2.617 10.157 2.61zM31.111 14.149c-3.82 0.754-9.094 0.599-15.419-2.563-5.913-2.956-10.619-2.919-13.793-2.214-0.164 0.036-0.324 0.075-0.48 0.114-0.416 0.904-0.747 1.854-0.985 2.841 0.254-0.068 0.517-0.132 0.788-0.193 3.85-0.856 9.291-0.819 15.866 2.469 5.913 2.956 10.619 2.919 13.793 2.214 0.109-0.024 0.216-0.049 0.321-0.075 0.012-0.246 0.017-0.494 0.017-0.743 0-0.626-0.037-1.244-0.109-1.851zM30.693 20.037c-3.783 0.661-8.904 0.407-15-2.641-5.913-2.956-10.619-2.919-13.793-2.214-0.704 0.156-1.338 0.347-1.897 0.548-0.002 0.090-0.002 0.179-0.002 0.269 0 8.621 6.989 15.61 15.61 15.61 7.225 0 13.304-4.909 15.083-11.573z"></path>
        </symbol>
        <symbol id="icon-instagram" viewBox="0 0 32 32">
        <path d="M16.727 8.159c-4.364 0-7.841 3.545-7.841 7.841 0 4.364 3.477 7.841 7.841 7.841 4.295 0 7.841-3.477 7.841-7.841 0-4.295-3.545-7.841-7.841-7.841zM16.727 21.114c-2.795 0-5.114-2.25-5.114-5.114 0-2.795 2.25-5.045 5.114-5.045 2.796 0 5.046 2.25 5.046 5.045 0 2.864-2.25 5.114-5.046 5.114zM26.682 7.886c0-1.023-0.818-1.841-1.841-1.841s-1.841 0.818-1.841 1.841c0 1.023 0.818 1.841 1.841 1.841s1.841-0.818 1.841-1.841zM31.864 9.727c-0.136-2.455-0.682-4.636-2.454-6.409s-3.955-2.318-6.409-2.455c-2.523-0.136-10.091-0.136-12.614 0-2.455 0.136-4.568 0.682-6.409 2.455-1.773 1.773-2.318 3.955-2.455 6.409-0.136 2.523-0.136 10.091 0 12.614 0.136 2.455 0.682 4.568 2.455 6.409 1.841 1.773 3.955 2.318 6.409 2.455 2.523 0.136 10.091 0.136 12.614 0 2.455-0.136 4.636-0.682 6.409-2.455 1.773-1.841 2.318-3.954 2.454-6.409 0.136-2.523 0.136-10.091 0-12.614zM28.591 25c-0.477 1.364-1.568 2.386-2.864 2.932-2.046 0.818-6.818 0.614-9 0.614-2.25 0-7.023 0.204-9-0.614-1.364-0.545-2.386-1.568-2.932-2.932-0.818-1.977-0.614-6.75-0.614-9 0-2.182-0.205-6.955 0.614-9 0.545-1.295 1.568-2.318 2.932-2.864 1.977-0.818 6.75-0.614 9-0.614 2.182 0 6.954-0.205 9 0.614 1.295 0.477 2.318 1.568 2.864 2.864 0.818 2.045 0.614 6.818 0.614 9 0 2.25 0.205 7.023-0.614 9z"></path>
        </symbol>
        <symbol id="icon-facebook" viewBox="0 0 32 32">
        <path d="M31.5 16c0-8.563-6.937-15.5-15.5-15.5s-15.5 6.938-15.5 15.5c0 7.75 5.625 14.187 13.063 15.313v-10.813h-3.938v-4.5h3.938v-3.375c0-3.875 2.312-6.063 5.812-6.063 1.75 0 3.5 0.313 3.5 0.313v3.813h-1.937c-1.937 0-2.563 1.188-2.563 2.438v2.875h4.313l-0.687 4.5h-3.625v10.813c7.438-1.125 13.125-7.563 13.125-15.313z"></path>
        </symbol>
        <symbol id="icon-twitter" viewBox="0 0 38 32">
        <path d="M34.425 8.2c1.5-1.125 2.85-2.475 3.9-4.050-1.35 0.6-2.925 1.050-4.5 1.2 1.65-0.975 2.85-2.475 3.45-4.35-1.5 0.9-3.225 1.575-4.95 1.95-1.5-1.575-3.525-2.475-5.775-2.475-4.35 0-7.875 3.525-7.875 7.875 0 0.6 0.075 1.2 0.225 1.8-6.525-0.375-12.375-3.525-16.275-8.25-0.675 1.125-1.050 2.475-1.050 3.975 0 2.7 1.35 5.1 3.525 6.525-1.275-0.075-2.55-0.375-3.6-0.975v0.075c0 3.825 2.7 6.975 6.3 7.725-0.6 0.15-1.35 0.3-2.025 0.3-0.525 0-0.975-0.075-1.5-0.15 0.975 3.15 3.9 5.4 7.35 5.475-2.7 2.1-6.075 3.375-9.75 3.375-0.675 0-1.275-0.075-1.875-0.15 3.45 2.25 7.575 3.525 12.075 3.525 14.475 0 22.35-11.925 22.35-22.35 0-0.375 0-0.675 0-1.050z"></path>
        </symbol>
    </defs>
</svg>
